<mxfile host="65bd71144e" pages="4">
    <diagram name="messenger" id="5_0h-pSaIOIic8nqq_gP">
        <mxGraphModel dx="948" dy="453" grid="1" gridSize="10" guides="1" tooltips="1" connect="1" arrows="1" fold="1" page="1" pageScale="1" pageWidth="850" pageHeight="1100" math="0" shadow="0">
            <root>
                <mxCell id="0"/>
                <mxCell id="1" parent="0"/>
                <mxCell id="Lf4R0j81BAVe3qb3Sqet-10" value="" style="edgeStyle=orthogonalEdgeStyle;rounded=0;orthogonalLoop=1;jettySize=auto;html=1;" parent="1" source="Lf4R0j81BAVe3qb3Sqet-1" target="Lf4R0j81BAVe3qb3Sqet-5" edge="1">
                    <mxGeometry relative="1" as="geometry"/>
                </mxCell>
                <mxCell id="Lf4R0j81BAVe3qb3Sqet-1" value="messages" style="shape=cylinder3;whiteSpace=wrap;html=1;boundedLbl=1;backgroundOutline=1;size=15;" parent="1" vertex="1">
                    <mxGeometry x="60" y="390" width="60" height="80" as="geometry"/>
                </mxCell>
                <mxCell id="Lf4R0j81BAVe3qb3Sqet-11" value="" style="edgeStyle=orthogonalEdgeStyle;rounded=0;orthogonalLoop=1;jettySize=auto;html=1;" parent="1" source="Lf4R0j81BAVe3qb3Sqet-5" target="Lf4R0j81BAVe3qb3Sqet-6" edge="1">
                    <mxGeometry relative="1" as="geometry"/>
                </mxCell>
                <mxCell id="Lf4R0j81BAVe3qb3Sqet-5" value="Process Q&amp;amp;A" style="rounded=0;whiteSpace=wrap;html=1;" parent="1" vertex="1">
                    <mxGeometry x="160" y="400" width="120" height="60" as="geometry"/>
                </mxCell>
                <mxCell id="Lf4R0j81BAVe3qb3Sqet-12" value="" style="edgeStyle=orthogonalEdgeStyle;rounded=0;orthogonalLoop=1;jettySize=auto;html=1;" parent="1" source="Lf4R0j81BAVe3qb3Sqet-6" target="Lf4R0j81BAVe3qb3Sqet-9" edge="1">
                    <mxGeometry relative="1" as="geometry"/>
                </mxCell>
                <mxCell id="Lf4R0j81BAVe3qb3Sqet-6" value="Q&amp;amp;A (raw)" style="shape=cylinder3;whiteSpace=wrap;html=1;boundedLbl=1;backgroundOutline=1;size=15;" parent="1" vertex="1">
                    <mxGeometry x="330" y="390" width="60" height="80" as="geometry"/>
                </mxCell>
                <mxCell id="Lf4R0j81BAVe3qb3Sqet-15" value="" style="edgeStyle=orthogonalEdgeStyle;rounded=0;orthogonalLoop=1;jettySize=auto;html=1;" parent="1" source="Lf4R0j81BAVe3qb3Sqet-31" target="Lf4R0j81BAVe3qb3Sqet-13" edge="1">
                    <mxGeometry relative="1" as="geometry"/>
                </mxCell>
                <mxCell id="Lf4R0j81BAVe3qb3Sqet-9" value="Label Q&amp;amp;A" style="rounded=0;whiteSpace=wrap;html=1;" parent="1" vertex="1">
                    <mxGeometry x="450" y="400" width="120" height="60" as="geometry"/>
                </mxCell>
                <mxCell id="Lf4R0j81BAVe3qb3Sqet-22" style="edgeStyle=orthogonalEdgeStyle;rounded=0;orthogonalLoop=1;jettySize=auto;html=1;entryX=0.5;entryY=1;entryDx=0;entryDy=0;entryPerimeter=0;" parent="1" source="Lf4R0j81BAVe3qb3Sqet-13" target="Lf4R0j81BAVe3qb3Sqet-21" edge="1">
                    <mxGeometry relative="1" as="geometry">
                        <mxPoint x="660" y="330" as="targetPoint"/>
                    </mxGeometry>
                </mxCell>
                <mxCell id="Lf4R0j81BAVe3qb3Sqet-39" value="" style="edgeStyle=orthogonalEdgeStyle;rounded=0;orthogonalLoop=1;jettySize=auto;html=1;" parent="1" source="Lf4R0j81BAVe3qb3Sqet-13" target="Lf4R0j81BAVe3qb3Sqet-36" edge="1">
                    <mxGeometry relative="1" as="geometry"/>
                </mxCell>
                <mxCell id="Lf4R0j81BAVe3qb3Sqet-13" value="Q&amp;amp;A (processed)" style="shape=cylinder3;whiteSpace=wrap;html=1;boundedLbl=1;backgroundOutline=1;size=15;" parent="1" vertex="1">
                    <mxGeometry x="630" y="390" width="60" height="80" as="geometry"/>
                </mxCell>
                <mxCell id="Lf4R0j81BAVe3qb3Sqet-20" value="" style="endArrow=classic;html=1;rounded=0;" parent="1" edge="1">
                    <mxGeometry width="50" height="50" relative="1" as="geometry">
                        <mxPoint x="20" y="430" as="sourcePoint"/>
                        <mxPoint x="60" y="430" as="targetPoint"/>
                    </mxGeometry>
                </mxCell>
                <mxCell id="Lf4R0j81BAVe3qb3Sqet-21" value="Questions&lt;div&gt;&lt;br&gt;&lt;/div&gt;&lt;div&gt;1. Is it really helpful that chatbot answers visa requirements?&lt;/div&gt;&lt;div&gt;&lt;br&gt;&lt;/div&gt;&lt;div&gt;2. Why do applicants use messages?&lt;/div&gt;&lt;div&gt;&lt;br&gt;&lt;/div&gt;&lt;div&gt;3. etc&lt;/div&gt;" style="shape=note;whiteSpace=wrap;html=1;backgroundOutline=1;darkOpacity=0.05;size=19;align=left;" parent="1" vertex="1">
                    <mxGeometry x="595" y="190" width="130" height="150" as="geometry"/>
                </mxCell>
                <mxCell id="Lf4R0j81BAVe3qb3Sqet-26" value="" style="rounded=0;whiteSpace=wrap;html=1;fillColor=none;strokeColor=#ff0000;strokeWidth=2;" parent="1" vertex="1">
                    <mxGeometry x="440" y="350" width="140" height="210" as="geometry"/>
                </mxCell>
                <mxCell id="Lf4R0j81BAVe3qb3Sqet-27" value="This Part!!" style="text;html=1;align=center;verticalAlign=middle;whiteSpace=wrap;rounded=0;fontColor=#FF0000;fontStyle=1;fontSize=16;" parent="1" vertex="1">
                    <mxGeometry x="465" y="360" width="90" height="30" as="geometry"/>
                </mxCell>
                <mxCell id="Lf4R0j81BAVe3qb3Sqet-28" value="Seth, Mariel, and Ali" style="text;html=1;align=center;verticalAlign=middle;whiteSpace=wrap;rounded=0;fontColor=#FF0000;" parent="1" vertex="1">
                    <mxGeometry x="450" y="490" width="120" height="30" as="geometry"/>
                </mxCell>
                <mxCell id="Lf4R0j81BAVe3qb3Sqet-32" value="" style="edgeStyle=orthogonalEdgeStyle;rounded=0;orthogonalLoop=1;jettySize=auto;html=1;" parent="1" source="Lf4R0j81BAVe3qb3Sqet-9" target="Lf4R0j81BAVe3qb3Sqet-31" edge="1">
                    <mxGeometry relative="1" as="geometry">
                        <mxPoint x="570" y="430" as="sourcePoint"/>
                        <mxPoint x="630" y="430" as="targetPoint"/>
                    </mxGeometry>
                </mxCell>
                <mxCell id="Lf4R0j81BAVe3qb3Sqet-31" value="" style="ellipse;whiteSpace=wrap;html=1;aspect=fixed;" parent="1" vertex="1">
                    <mxGeometry x="590" y="420" width="20" height="20" as="geometry"/>
                </mxCell>
                <mxCell id="Lf4R0j81BAVe3qb3Sqet-33" value="" style="endArrow=none;dashed=1;html=1;dashPattern=1 3;strokeWidth=2;rounded=0;entryX=0.5;entryY=1;entryDx=0;entryDy=0;" parent="1" target="Lf4R0j81BAVe3qb3Sqet-31" edge="1">
                    <mxGeometry width="50" height="50" relative="1" as="geometry">
                        <mxPoint x="600" y="630" as="sourcePoint"/>
                        <mxPoint x="710" y="600" as="targetPoint"/>
                    </mxGeometry>
                </mxCell>
                <mxCell id="Lf4R0j81BAVe3qb3Sqet-34" value="double check with Attic Tours" style="rounded=0;whiteSpace=wrap;html=1;" parent="1" vertex="1">
                    <mxGeometry x="540" y="580" width="120" height="60" as="geometry"/>
                </mxCell>
                <mxCell id="Lf4R0j81BAVe3qb3Sqet-35" value="Analysis" style="text;html=1;align=center;verticalAlign=middle;whiteSpace=wrap;rounded=0;" parent="1" vertex="1">
                    <mxGeometry x="620" y="160" width="60" height="30" as="geometry"/>
                </mxCell>
                <mxCell id="Lf4R0j81BAVe3qb3Sqet-36" value="" style="shape=image;verticalLabelPosition=bottom;labelBackgroundColor=default;verticalAlign=top;aspect=fixed;imageAspect=0;image=data:image/svg+xml,PHN2ZyB4bWxuczp4bGluaz0iaHR0cDovL3d3dy53My5vcmcvMTk5OS94bGluayIgeG1sbnM9Imh0dHA6Ly93d3cudzMub3JnLzIwMDAvc3ZnIiB2aWV3Qm94PSIwIDAgMjQwNiAyNDA2Ij4mI3hhOwk8cGF0aCBmaWxsPSIjNzRhYTljIiBkPSJNMSA1NzguNEMxIDI1OS41IDI1OS41IDEgNTc4LjQgMWgxMjQ5LjFjMzE5IDAgNTc3LjUgMjU4LjUgNTc3LjUgNTc3LjRWMjQwNkg1NzguNEMyNTkuNSAyNDA2IDEgMjE0Ny41IDEgMTgyOC42VjU3OC40eiIvPiYjeGE7CTxwYXRoIGZpbGw9IiNmZmYiIGQ9Ik0xMTA3LjMgMjk5LjFjLTE5Ny45OTkgMC0zNzMuOSAxMjcuMy00MzUuMiAzMTUuM0w2NTAgNzQzLjV2NDI3LjljMCAyMS40IDExIDQwLjQgMjkuNCA1MS40bDM0NC41IDE5OC41MTVWODMzLjNoLjF2LTI3LjlMMTM3Mi43IDYwNGMzMy43MTUtMTkuNTIgNzAuNDQtMzIuODU3IDEwOC40Ny0zOS44MjhMMTQ0Ny42IDQ1MC4zQzEzNjEgMzUzLjUgMTIzNy4xIDI5OC41IDExMDcuMyAyOTkuMXptMCAxMTcuNS0uNi42Yzc5LjY5OSAwIDE1Ni4zIDI3LjUgMjE3LjYgNzguNC0yLjUgMS4yLTcuNCA0LjMtMTEgNi4xTDk1Mi44IDcwOS4zYy0xOC40IDEwLjQtMjkuNCAzMC0yOS40IDUxLjRWMTI0OGwtMTU1LjEtODkuNFY3NTUuOGMtLjEtMTg3LjA5OSAxNTEuNjAxLTMzOC45IDMzOS0zMzkuMnoiIGlkPSJhIi8+JiN4YTsJPHVzZSB0cmFuc2Zvcm09InJvdGF0ZSg2MCAxMjAzIDEyMDMpIiB4bGluazpocmVmPSIjYSIvPiYjeGE7ICAJPHVzZSB0cmFuc2Zvcm09InJvdGF0ZSgxMjAgMTIwMyAxMjAzKSIgeGxpbms6aHJlZj0iI2EiLz4mI3hhOwk8dXNlIHRyYW5zZm9ybT0icm90YXRlKDE4MCAxMjAzIDEyMDMpIiB4bGluazpocmVmPSIjYSIvPiYjeGE7CTx1c2UgdHJhbnNmb3JtPSJyb3RhdGUoMjQwIDEyMDMgMTIwMykiIHhsaW5rOmhyZWY9IiNhIi8+JiN4YTsJPHVzZSB0cmFuc2Zvcm09InJvdGF0ZSgzMDAgMTIwMyAxMjAzKSIgeGxpbms6aHJlZj0iI2EiLz4mI3hhOyYjeGE7PC9zdmc+;" parent="1" vertex="1">
                    <mxGeometry x="740" y="390" width="75" height="75" as="geometry"/>
                </mxCell>
                <mxCell id="Lf4R0j81BAVe3qb3Sqet-37" value="Evaluation" style="text;html=1;align=center;verticalAlign=middle;whiteSpace=wrap;rounded=0;" parent="1" vertex="1">
                    <mxGeometry x="747.5" y="360" width="60" height="30" as="geometry"/>
                </mxCell>
                <mxCell id="Lf4R0j81BAVe3qb3Sqet-38" value="&lt;h1 style=&quot;margin-top: 0px;&quot;&gt;Attic Tours Messenger Data&lt;/h1&gt;&lt;p&gt;This data is utilized for practical analysis and evaluation for RAG.&lt;/p&gt;" style="text;html=1;whiteSpace=wrap;overflow=hidden;rounded=0;" parent="1" vertex="1">
                    <mxGeometry x="160" y="200" width="200" height="130" as="geometry"/>
                </mxCell>
            </root>
        </mxGraphModel>
    </diagram>
    <diagram id="IxqoyDyKNd-jIpsIC52r" name="japan embassy hp">
        <mxGraphModel dx="948" dy="453" grid="1" gridSize="10" guides="1" tooltips="1" connect="1" arrows="1" fold="1" page="1" pageScale="1" pageWidth="850" pageHeight="1100" math="0" shadow="0">
            <root>
                <mxCell id="0"/>
                <mxCell id="1" parent="0"/>
                <mxCell id="vwLE_JfnU8zJgisKPxY4-4" value="" style="edgeStyle=none;html=1;" parent="1" source="n6GbAgVxsW-mx_6GFPzo-1" target="n6GbAgVxsW-mx_6GFPzo-2" edge="1">
                    <mxGeometry relative="1" as="geometry"/>
                </mxCell>
                <mxCell id="n6GbAgVxsW-mx_6GFPzo-1" value="Web Scraping (Japan Embassy Website)" style="rounded=0;whiteSpace=wrap;html=1;" parent="1" vertex="1">
                    <mxGeometry x="140" y="380" width="120" height="60" as="geometry"/>
                </mxCell>
                <mxCell id="vwLE_JfnU8zJgisKPxY4-5" value="" style="edgeStyle=none;html=1;" parent="1" source="n6GbAgVxsW-mx_6GFPzo-2" target="n6GbAgVxsW-mx_6GFPzo-3" edge="1">
                    <mxGeometry relative="1" as="geometry"/>
                </mxCell>
                <mxCell id="n6GbAgVxsW-mx_6GFPzo-2" value="raw" style="shape=cylinder3;whiteSpace=wrap;html=1;boundedLbl=1;backgroundOutline=1;size=15;" parent="1" vertex="1">
                    <mxGeometry x="310" y="370" width="60" height="80" as="geometry"/>
                </mxCell>
                <mxCell id="vwLE_JfnU8zJgisKPxY4-6" value="" style="edgeStyle=none;html=1;" parent="1" source="n6GbAgVxsW-mx_6GFPzo-3" target="vwLE_JfnU8zJgisKPxY4-1" edge="1">
                    <mxGeometry relative="1" as="geometry"/>
                </mxCell>
                <mxCell id="n6GbAgVxsW-mx_6GFPzo-3" value="data cleaning" style="rounded=0;whiteSpace=wrap;html=1;" parent="1" vertex="1">
                    <mxGeometry x="420" y="380" width="120" height="60" as="geometry"/>
                </mxCell>
                <mxCell id="vwLE_JfnU8zJgisKPxY4-7" value="" style="edgeStyle=none;html=1;" parent="1" source="vwLE_JfnU8zJgisKPxY4-1" target="vwLE_JfnU8zJgisKPxY4-3" edge="1">
                    <mxGeometry relative="1" as="geometry"/>
                </mxCell>
                <mxCell id="vwLE_JfnU8zJgisKPxY4-1" value="processed" style="shape=cylinder3;whiteSpace=wrap;html=1;boundedLbl=1;backgroundOutline=1;size=15;" parent="1" vertex="1">
                    <mxGeometry x="590" y="370" width="60" height="80" as="geometry"/>
                </mxCell>
                <mxCell id="vwLE_JfnU8zJgisKPxY4-2" value="Custom Embedding" style="shape=cube;whiteSpace=wrap;html=1;boundedLbl=1;backgroundOutline=1;darkOpacity=0.05;darkOpacity2=0.1;" parent="1" vertex="1">
                    <mxGeometry x="740" y="220.16000000000003" width="120" height="80" as="geometry"/>
                </mxCell>
                <mxCell id="vwLE_JfnU8zJgisKPxY4-10" value="" style="edgeStyle=none;html=1;" parent="1" source="vwLE_JfnU8zJgisKPxY4-3" target="vwLE_JfnU8zJgisKPxY4-9" edge="1">
                    <mxGeometry relative="1" as="geometry"/>
                </mxCell>
                <mxCell id="vwLE_JfnU8zJgisKPxY4-3" value="Train Model" style="rounded=0;whiteSpace=wrap;html=1;" parent="1" vertex="1">
                    <mxGeometry x="720" y="380" width="120" height="60" as="geometry"/>
                </mxCell>
                <mxCell id="vwLE_JfnU8zJgisKPxY4-11" style="edgeStyle=none;html=1;entryX=0;entryY=0;entryDx=120;entryDy=50;entryPerimeter=0;exitX=0.5;exitY=0;exitDx=0;exitDy=0;" parent="1" source="vwLE_JfnU8zJgisKPxY4-9" target="vwLE_JfnU8zJgisKPxY4-2" edge="1">
                    <mxGeometry relative="1" as="geometry">
                        <Array as="points">
                            <mxPoint x="950" y="270"/>
                        </Array>
                    </mxGeometry>
                </mxCell>
                <mxCell id="vwLE_JfnU8zJgisKPxY4-12" value="yes" style="edgeLabel;html=1;align=center;verticalAlign=middle;resizable=0;points=[];" parent="vwLE_JfnU8zJgisKPxY4-11" vertex="1" connectable="0">
                    <mxGeometry x="-0.544" relative="1" as="geometry">
                        <mxPoint y="-1" as="offset"/>
                    </mxGeometry>
                </mxCell>
                <mxCell id="vwLE_JfnU8zJgisKPxY4-13" style="edgeStyle=none;html=1;exitX=0.5;exitY=1;exitDx=0;exitDy=0;" parent="1" source="vwLE_JfnU8zJgisKPxY4-9" edge="1">
                    <mxGeometry relative="1" as="geometry">
                        <mxPoint x="680" y="410" as="targetPoint"/>
                        <Array as="points">
                            <mxPoint x="950" y="500"/>
                            <mxPoint x="680" y="500"/>
                        </Array>
                    </mxGeometry>
                </mxCell>
                <mxCell id="vwLE_JfnU8zJgisKPxY4-14" value="no" style="edgeLabel;html=1;align=center;verticalAlign=middle;resizable=0;points=[];" parent="vwLE_JfnU8zJgisKPxY4-13" vertex="1" connectable="0">
                    <mxGeometry x="-0.0708" y="1" relative="1" as="geometry">
                        <mxPoint x="141" y="-21" as="offset"/>
                    </mxGeometry>
                </mxCell>
                <mxCell id="vwLE_JfnU8zJgisKPxY4-9" value="better?" style="rhombus;whiteSpace=wrap;html=1;" parent="1" vertex="1">
                    <mxGeometry x="910" y="370" width="80" height="80" as="geometry"/>
                </mxCell>
                <mxCell id="tL9VnyIDCOgQdv8EDfFm-1" value="" style="shape=image;verticalLabelPosition=bottom;labelBackgroundColor=default;verticalAlign=top;aspect=fixed;imageAspect=0;image=data:image/svg+xml,PHN2ZyB4bWxuczp4bGluaz0iaHR0cDovL3d3dy53My5vcmcvMTk5OS94bGluayIgeG1sbnM9Imh0dHA6Ly93d3cudzMub3JnLzIwMDAvc3ZnIiB2aWV3Qm94PSIwIDAgMjQwNiAyNDA2Ij4mI3hhOwk8cGF0aCBmaWxsPSIjNzRhYTljIiBkPSJNMSA1NzguNEMxIDI1OS41IDI1OS41IDEgNTc4LjQgMWgxMjQ5LjFjMzE5IDAgNTc3LjUgMjU4LjUgNTc3LjUgNTc3LjRWMjQwNkg1NzguNEMyNTkuNSAyNDA2IDEgMjE0Ny41IDEgMTgyOC42VjU3OC40eiIvPiYjeGE7CTxwYXRoIGZpbGw9IiNmZmYiIGQ9Ik0xMTA3LjMgMjk5LjFjLTE5Ny45OTkgMC0zNzMuOSAxMjcuMy00MzUuMiAzMTUuM0w2NTAgNzQzLjV2NDI3LjljMCAyMS40IDExIDQwLjQgMjkuNCA1MS40bDM0NC41IDE5OC41MTVWODMzLjNoLjF2LTI3LjlMMTM3Mi43IDYwNGMzMy43MTUtMTkuNTIgNzAuNDQtMzIuODU3IDEwOC40Ny0zOS44MjhMMTQ0Ny42IDQ1MC4zQzEzNjEgMzUzLjUgMTIzNy4xIDI5OC41IDExMDcuMyAyOTkuMXptMCAxMTcuNS0uNi42Yzc5LjY5OSAwIDE1Ni4zIDI3LjUgMjE3LjYgNzguNC0yLjUgMS4yLTcuNCA0LjMtMTEgNi4xTDk1Mi44IDcwOS4zYy0xOC40IDEwLjQtMjkuNCAzMC0yOS40IDUxLjRWMTI0OGwtMTU1LjEtODkuNFY3NTUuOGMtLjEtMTg3LjA5OSAxNTEuNjAxLTMzOC45IDMzOS0zMzkuMnoiIGlkPSJhIi8+JiN4YTsJPHVzZSB0cmFuc2Zvcm09InJvdGF0ZSg2MCAxMjAzIDEyMDMpIiB4bGluazpocmVmPSIjYSIvPiYjeGE7ICAJPHVzZSB0cmFuc2Zvcm09InJvdGF0ZSgxMjAgMTIwMyAxMjAzKSIgeGxpbms6aHJlZj0iI2EiLz4mI3hhOwk8dXNlIHRyYW5zZm9ybT0icm90YXRlKDE4MCAxMjAzIDEyMDMpIiB4bGluazpocmVmPSIjYSIvPiYjeGE7CTx1c2UgdHJhbnNmb3JtPSJyb3RhdGUoMjQwIDEyMDMgMTIwMykiIHhsaW5rOmhyZWY9IiNhIi8+JiN4YTsJPHVzZSB0cmFuc2Zvcm09InJvdGF0ZSgzMDAgMTIwMyAxMjAzKSIgeGxpbms6aHJlZj0iI2EiLz4mI3hhOyYjeGE7PC9zdmc+;" parent="1" vertex="1">
                    <mxGeometry x="530" y="220.16000000000003" width="75" height="75" as="geometry"/>
                </mxCell>
                <mxCell id="tL9VnyIDCOgQdv8EDfFm-4" value="RAG" style="text;html=1;strokeColor=none;fillColor=none;align=center;verticalAlign=middle;whiteSpace=wrap;rounded=0;" parent="1" vertex="1">
                    <mxGeometry x="537.5" y="295.16" width="60" height="30" as="geometry"/>
                </mxCell>
                <mxCell id="tL9VnyIDCOgQdv8EDfFm-7" value="" style="edgeStyle=none;html=1;" parent="1" source="vwLE_JfnU8zJgisKPxY4-2" target="tL9VnyIDCOgQdv8EDfFm-1" edge="1">
                    <mxGeometry relative="1" as="geometry">
                        <mxPoint x="559.9999999999998" y="257.66" as="sourcePoint"/>
                    </mxGeometry>
                </mxCell>
                <mxCell id="tL9VnyIDCOgQdv8EDfFm-8" value="as Vectorizer" style="edgeLabel;html=1;align=center;verticalAlign=middle;resizable=0;points=[];" parent="tL9VnyIDCOgQdv8EDfFm-7" vertex="1" connectable="0">
                    <mxGeometry x="-0.0416" y="-1" relative="1" as="geometry">
                        <mxPoint as="offset"/>
                    </mxGeometry>
                </mxCell>
                <mxCell id="tL9VnyIDCOgQdv8EDfFm-9" value="" style="endArrow=classic;html=1;entryX=0;entryY=0.5;entryDx=0;entryDy=0;" parent="1" target="n6GbAgVxsW-mx_6GFPzo-1" edge="1">
                    <mxGeometry width="50" height="50" relative="1" as="geometry">
                        <mxPoint x="100" y="410" as="sourcePoint"/>
                        <mxPoint x="120" y="410" as="targetPoint"/>
                    </mxGeometry>
                </mxCell>
                <mxCell id="tL9VnyIDCOgQdv8EDfFm-10" value="&lt;h1&gt;Japan Embassy HP data&lt;/h1&gt;&lt;p&gt;The website texts are utilized to develop custom embedding model that is the crucial component of the RAG system.&lt;/p&gt;" style="text;html=1;strokeColor=none;fillColor=none;spacing=5;spacingTop=-20;whiteSpace=wrap;overflow=hidden;rounded=0;" parent="1" vertex="1">
                    <mxGeometry x="177.5" y="200" width="282.5" height="130" as="geometry"/>
                </mxCell>
            </root>
        </mxGraphModel>
    </diagram>
    <diagram id="PLO0ZvdDjTk2dKgUdfPE" name="PDF">
        <mxGraphModel dx="2201" dy="453" grid="1" gridSize="10" guides="1" tooltips="1" connect="1" arrows="1" fold="1" page="1" pageScale="1" pageWidth="850" pageHeight="1100" math="0" shadow="0">
            <root>
                <mxCell id="0"/>
                <mxCell id="1" parent="0"/>
                <mxCell id="txYXtl4ujaP_D7rXp_dV-2" style="edgeStyle=orthogonalEdgeStyle;rounded=0;orthogonalLoop=1;jettySize=auto;html=1;" parent="1" source="UV5O4Kogx3WQtF-jAkpZ-1" target="txYXtl4ujaP_D7rXp_dV-1" edge="1">
                    <mxGeometry relative="1" as="geometry"/>
                </mxCell>
                <mxCell id="txYXtl4ujaP_D7rXp_dV-3" value="store" style="edgeLabel;html=1;align=center;verticalAlign=middle;resizable=0;points=[];" parent="txYXtl4ujaP_D7rXp_dV-2" vertex="1" connectable="0">
                    <mxGeometry x="0.0857" y="1" relative="1" as="geometry">
                        <mxPoint as="offset"/>
                    </mxGeometry>
                </mxCell>
                <mxCell id="UV5O4Kogx3WQtF-jAkpZ-1" value="Custom Embedding" style="shape=cube;whiteSpace=wrap;html=1;boundedLbl=1;backgroundOutline=1;darkOpacity=0.05;darkOpacity2=0.1;" parent="1" vertex="1">
                    <mxGeometry x="410" y="560" width="120" height="80" as="geometry"/>
                </mxCell>
                <mxCell id="UV5O4Kogx3WQtF-jAkpZ-2" value="" style="shape=note;whiteSpace=wrap;html=1;backgroundOutline=1;darkOpacity=0.05;" parent="1" vertex="1">
                    <mxGeometry x="-220" y="310" width="80" height="100" as="geometry"/>
                </mxCell>
                <mxCell id="UV5O4Kogx3WQtF-jAkpZ-7" value="" style="endArrow=none;dashed=1;html=1;dashPattern=1 3;strokeWidth=2;rounded=0;" parent="1" edge="1">
                    <mxGeometry width="50" height="50" relative="1" as="geometry">
                        <mxPoint x="-190" y="360" as="sourcePoint"/>
                        <mxPoint x="-210" y="320" as="targetPoint"/>
                    </mxGeometry>
                </mxCell>
                <mxCell id="UV5O4Kogx3WQtF-jAkpZ-8" value="" style="shape=note;whiteSpace=wrap;html=1;backgroundOutline=1;darkOpacity=0.05;" parent="1" vertex="1">
                    <mxGeometry x="-190" y="360" width="80" height="100" as="geometry"/>
                </mxCell>
                <mxCell id="UV5O4Kogx3WQtF-jAkpZ-9" value="" style="shape=note;whiteSpace=wrap;html=1;backgroundOutline=1;darkOpacity=0.05;" parent="1" vertex="1">
                    <mxGeometry x="-180" y="370" width="80" height="100" as="geometry"/>
                </mxCell>
                <mxCell id="UV5O4Kogx3WQtF-jAkpZ-12" value="" style="edgeStyle=orthogonalEdgeStyle;rounded=0;orthogonalLoop=1;jettySize=auto;html=1;" parent="1" source="UV5O4Kogx3WQtF-jAkpZ-10" target="UV5O4Kogx3WQtF-jAkpZ-11" edge="1">
                    <mxGeometry relative="1" as="geometry"/>
                </mxCell>
                <mxCell id="UV5O4Kogx3WQtF-jAkpZ-10" value="" style="shape=note;whiteSpace=wrap;html=1;backgroundOutline=1;darkOpacity=0.05;" parent="1" vertex="1">
                    <mxGeometry x="-170" y="380" width="80" height="100" as="geometry"/>
                </mxCell>
                <mxCell id="UV5O4Kogx3WQtF-jAkpZ-16" value="" style="edgeStyle=orthogonalEdgeStyle;rounded=0;orthogonalLoop=1;jettySize=auto;html=1;" parent="1" source="UV5O4Kogx3WQtF-jAkpZ-11" target="UV5O4Kogx3WQtF-jAkpZ-14" edge="1">
                    <mxGeometry relative="1" as="geometry"/>
                </mxCell>
                <mxCell id="UV5O4Kogx3WQtF-jAkpZ-17" value="into 1 file" style="edgeLabel;html=1;align=center;verticalAlign=middle;resizable=0;points=[];" parent="UV5O4Kogx3WQtF-jAkpZ-16" vertex="1" connectable="0">
                    <mxGeometry x="-0.1636" relative="1" as="geometry">
                        <mxPoint as="offset"/>
                    </mxGeometry>
                </mxCell>
                <mxCell id="UV5O4Kogx3WQtF-jAkpZ-11" value="Collect PDFs" style="rounded=0;whiteSpace=wrap;html=1;" parent="1" vertex="1">
                    <mxGeometry x="-40" y="400" width="120" height="60" as="geometry"/>
                </mxCell>
                <mxCell id="UV5O4Kogx3WQtF-jAkpZ-13" value="Domain Data (PDFs)" style="text;html=1;align=center;verticalAlign=middle;whiteSpace=wrap;rounded=0;" parent="1" vertex="1">
                    <mxGeometry x="-160" y="490" width="60" height="30" as="geometry"/>
                </mxCell>
                <mxCell id="UV5O4Kogx3WQtF-jAkpZ-19" value="" style="edgeStyle=orthogonalEdgeStyle;rounded=0;orthogonalLoop=1;jettySize=auto;html=1;" parent="1" source="UV5O4Kogx3WQtF-jAkpZ-14" target="UV5O4Kogx3WQtF-jAkpZ-18" edge="1">
                    <mxGeometry relative="1" as="geometry"/>
                </mxCell>
                <mxCell id="UV5O4Kogx3WQtF-jAkpZ-14" value="" style="shape=note;whiteSpace=wrap;html=1;backgroundOutline=1;darkOpacity=0.05;" parent="1" vertex="1">
                    <mxGeometry x="190" y="380" width="80" height="100" as="geometry"/>
                </mxCell>
                <mxCell id="UV5O4Kogx3WQtF-jAkpZ-15" value="Text" style="text;html=1;align=center;verticalAlign=middle;whiteSpace=wrap;rounded=0;" parent="1" vertex="1">
                    <mxGeometry x="200" y="480" width="60" height="30" as="geometry"/>
                </mxCell>
                <mxCell id="UV5O4Kogx3WQtF-jAkpZ-21" value="" style="edgeStyle=orthogonalEdgeStyle;rounded=0;orthogonalLoop=1;jettySize=auto;html=1;" parent="1" source="UV5O4Kogx3WQtF-jAkpZ-18" target="UV5O4Kogx3WQtF-jAkpZ-20" edge="1">
                    <mxGeometry relative="1" as="geometry"/>
                </mxCell>
                <mxCell id="UV5O4Kogx3WQtF-jAkpZ-18" value="Data cleaning" style="rounded=0;whiteSpace=wrap;html=1;" parent="1" vertex="1">
                    <mxGeometry x="320" y="400" width="120" height="60" as="geometry"/>
                </mxCell>
                <mxCell id="UV5O4Kogx3WQtF-jAkpZ-20" value="chunk with meta data" style="rounded=0;whiteSpace=wrap;html=1;" parent="1" vertex="1">
                    <mxGeometry x="490" y="400" width="120" height="60" as="geometry"/>
                </mxCell>
                <mxCell id="UV5O4Kogx3WQtF-jAkpZ-22" style="edgeStyle=orthogonalEdgeStyle;rounded=0;orthogonalLoop=1;jettySize=auto;html=1;entryX=0;entryY=0;entryDx=120;entryDy=50;entryPerimeter=0;exitX=1;exitY=0.5;exitDx=0;exitDy=0;" parent="1" source="UV5O4Kogx3WQtF-jAkpZ-20" target="UV5O4Kogx3WQtF-jAkpZ-1" edge="1">
                    <mxGeometry relative="1" as="geometry">
                        <Array as="points">
                            <mxPoint x="680" y="430"/>
                            <mxPoint x="680" y="610"/>
                        </Array>
                    </mxGeometry>
                </mxCell>
                <mxCell id="UV5O4Kogx3WQtF-jAkpZ-23" value="vectorize" style="edgeLabel;html=1;align=center;verticalAlign=middle;resizable=0;points=[];" parent="UV5O4Kogx3WQtF-jAkpZ-22" vertex="1" connectable="0">
                    <mxGeometry x="0.0267" y="2" relative="1" as="geometry">
                        <mxPoint y="-51" as="offset"/>
                    </mxGeometry>
                </mxCell>
                <mxCell id="txYXtl4ujaP_D7rXp_dV-6" value="" style="edgeStyle=orthogonalEdgeStyle;rounded=0;orthogonalLoop=1;jettySize=auto;html=1;" parent="1" source="txYXtl4ujaP_D7rXp_dV-1" target="txYXtl4ujaP_D7rXp_dV-5" edge="1">
                    <mxGeometry relative="1" as="geometry"/>
                </mxCell>
                <mxCell id="txYXtl4ujaP_D7rXp_dV-1" value="" style="shape=cylinder3;whiteSpace=wrap;html=1;boundedLbl=1;backgroundOutline=1;size=15;" parent="1" vertex="1">
                    <mxGeometry x="210" y="560" width="60" height="80" as="geometry"/>
                </mxCell>
                <mxCell id="txYXtl4ujaP_D7rXp_dV-4" value="Vector Database" style="text;html=1;align=center;verticalAlign=middle;whiteSpace=wrap;rounded=0;" parent="1" vertex="1">
                    <mxGeometry x="210" y="650" width="60" height="30" as="geometry"/>
                </mxCell>
                <mxCell id="lyMHwGtsCqmmJAi8XDom-2" value="" style="edgeStyle=orthogonalEdgeStyle;rounded=0;orthogonalLoop=1;jettySize=auto;html=1;" parent="1" source="txYXtl4ujaP_D7rXp_dV-5" target="lyMHwGtsCqmmJAi8XDom-1" edge="1">
                    <mxGeometry relative="1" as="geometry"/>
                </mxCell>
                <mxCell id="lyMHwGtsCqmmJAi8XDom-3" value="as Retriever" style="edgeLabel;html=1;align=center;verticalAlign=middle;resizable=0;points=[];" parent="lyMHwGtsCqmmJAi8XDom-2" vertex="1" connectable="0">
                    <mxGeometry x="0.0609" y="-1" relative="1" as="geometry">
                        <mxPoint as="offset"/>
                    </mxGeometry>
                </mxCell>
                <mxCell id="txYXtl4ujaP_D7rXp_dV-5" value="Fine Tune (HNSW)" style="rounded=0;whiteSpace=wrap;html=1;" parent="1" vertex="1">
                    <mxGeometry x="20" y="570" width="120" height="60" as="geometry"/>
                </mxCell>
                <mxCell id="lyMHwGtsCqmmJAi8XDom-1" value="" style="shape=image;verticalLabelPosition=bottom;labelBackgroundColor=default;verticalAlign=top;aspect=fixed;imageAspect=0;image=data:image/svg+xml,PHN2ZyB4bWxuczp4bGluaz0iaHR0cDovL3d3dy53My5vcmcvMTk5OS94bGluayIgeG1sbnM9Imh0dHA6Ly93d3cudzMub3JnLzIwMDAvc3ZnIiB2aWV3Qm94PSIwIDAgMjQwNiAyNDA2Ij4mI3hhOwk8cGF0aCBmaWxsPSIjNzRhYTljIiBkPSJNMSA1NzguNEMxIDI1OS41IDI1OS41IDEgNTc4LjQgMWgxMjQ5LjFjMzE5IDAgNTc3LjUgMjU4LjUgNTc3LjUgNTc3LjRWMjQwNkg1NzguNEMyNTkuNSAyNDA2IDEgMjE0Ny41IDEgMTgyOC42VjU3OC40eiIvPiYjeGE7CTxwYXRoIGZpbGw9IiNmZmYiIGQ9Ik0xMTA3LjMgMjk5LjFjLTE5Ny45OTkgMC0zNzMuOSAxMjcuMy00MzUuMiAzMTUuM0w2NTAgNzQzLjV2NDI3LjljMCAyMS40IDExIDQwLjQgMjkuNCA1MS40bDM0NC41IDE5OC41MTVWODMzLjNoLjF2LTI3LjlMMTM3Mi43IDYwNGMzMy43MTUtMTkuNTIgNzAuNDQtMzIuODU3IDEwOC40Ny0zOS44MjhMMTQ0Ny42IDQ1MC4zQzEzNjEgMzUzLjUgMTIzNy4xIDI5OC41IDExMDcuMyAyOTkuMXptMCAxMTcuNS0uNi42Yzc5LjY5OSAwIDE1Ni4zIDI3LjUgMjE3LjYgNzguNC0yLjUgMS4yLTcuNCA0LjMtMTEgNi4xTDk1Mi44IDcwOS4zYy0xOC40IDEwLjQtMjkuNCAzMC0yOS40IDUxLjRWMTI0OGwtMTU1LjEtODkuNFY3NTUuOGMtLjEtMTg3LjA5OSAxNTEuNjAxLTMzOC45IDMzOS0zMzkuMnoiIGlkPSJhIi8+JiN4YTsJPHVzZSB0cmFuc2Zvcm09InJvdGF0ZSg2MCAxMjAzIDEyMDMpIiB4bGluazpocmVmPSIjYSIvPiYjeGE7ICAJPHVzZSB0cmFuc2Zvcm09InJvdGF0ZSgxMjAgMTIwMyAxMjAzKSIgeGxpbms6aHJlZj0iI2EiLz4mI3hhOwk8dXNlIHRyYW5zZm9ybT0icm90YXRlKDE4MCAxMjAzIDEyMDMpIiB4bGluazpocmVmPSIjYSIvPiYjeGE7CTx1c2UgdHJhbnNmb3JtPSJyb3RhdGUoMjQwIDEyMDMgMTIwMykiIHhsaW5rOmhyZWY9IiNhIi8+JiN4YTsJPHVzZSB0cmFuc2Zvcm09InJvdGF0ZSgzMDAgMTIwMyAxMjAzKSIgeGxpbms6aHJlZj0iI2EiLz4mI3hhOyYjeGE7PC9zdmc+;" parent="1" vertex="1">
                    <mxGeometry x="-170" y="562.5" width="75" height="75" as="geometry"/>
                </mxCell>
                <mxCell id="lyMHwGtsCqmmJAi8XDom-4" value="RAG" style="text;html=1;align=center;verticalAlign=middle;whiteSpace=wrap;rounded=0;" parent="1" vertex="1">
                    <mxGeometry x="-162.5" y="640" width="60" height="30" as="geometry"/>
                </mxCell>
                <mxCell id="CqkKzCHRqMpWbzQ3mo23-1" value="&lt;h1 style=&quot;margin-top: 0px;&quot;&gt;PDF data&lt;/h1&gt;&lt;p&gt;These are used to utilize the building of vector database and this will be the brain part of the RAG system.&lt;/p&gt;" style="text;html=1;whiteSpace=wrap;overflow=hidden;rounded=0;" parent="1" vertex="1">
                    <mxGeometry x="75" y="270" width="310" height="110" as="geometry"/>
                </mxCell>
                <mxCell id="CqkKzCHRqMpWbzQ3mo23-2" value="" style="endArrow=classic;html=1;rounded=0;" parent="1" edge="1">
                    <mxGeometry width="50" height="50" relative="1" as="geometry">
                        <mxPoint x="-260" y="429.5" as="sourcePoint"/>
                        <mxPoint x="-190" y="429.5" as="targetPoint"/>
                    </mxGeometry>
                </mxCell>
            </root>
        </mxGraphModel>
    </diagram>
    <diagram id="tFRPa7x-qfE7q8NpfbS_" name="SQuAD">
        <mxGraphModel dx="948" dy="453" grid="1" gridSize="10" guides="1" tooltips="1" connect="1" arrows="1" fold="1" page="1" pageScale="1" pageWidth="850" pageHeight="1100" math="0" shadow="0">
            <root>
                <mxCell id="0"/>
                <mxCell id="1" parent="0"/>
                <mxCell id="SkyXIEemoBtbNoT6E5G0-5" style="edgeStyle=orthogonalEdgeStyle;rounded=0;orthogonalLoop=1;jettySize=auto;html=1;entryX=0;entryY=0.5;entryDx=0;entryDy=0;" parent="1" source="SkyXIEemoBtbNoT6E5G0-1" target="SkyXIEemoBtbNoT6E5G0-3" edge="1">
                    <mxGeometry relative="1" as="geometry">
                        <Array as="points">
                            <mxPoint x="200" y="380"/>
                            <mxPoint x="200" y="430"/>
                        </Array>
                    </mxGeometry>
                </mxCell>
                <mxCell id="SkyXIEemoBtbNoT6E5G0-1" value="SQuAD" style="shape=cylinder3;whiteSpace=wrap;html=1;boundedLbl=1;backgroundOutline=1;size=15;" parent="1" vertex="1">
                    <mxGeometry x="100" y="340" width="60" height="80" as="geometry"/>
                </mxCell>
                <mxCell id="SkyXIEemoBtbNoT6E5G0-7" style="edgeStyle=orthogonalEdgeStyle;rounded=0;orthogonalLoop=1;jettySize=auto;html=1;entryX=0;entryY=0.5;entryDx=0;entryDy=0;" parent="1" source="SkyXIEemoBtbNoT6E5G0-2" target="SkyXIEemoBtbNoT6E5G0-3" edge="1">
                    <mxGeometry relative="1" as="geometry">
                        <Array as="points">
                            <mxPoint x="200" y="480"/>
                            <mxPoint x="200" y="430"/>
                        </Array>
                    </mxGeometry>
                </mxCell>
                <mxCell id="SkyXIEemoBtbNoT6E5G0-2" value="Messenger" style="shape=cylinder3;whiteSpace=wrap;html=1;boundedLbl=1;backgroundOutline=1;size=15;" parent="1" vertex="1">
                    <mxGeometry x="100" y="440" width="60" height="80" as="geometry"/>
                </mxCell>
                <mxCell id="SkyXIEemoBtbNoT6E5G0-10" value="" style="edgeStyle=orthogonalEdgeStyle;rounded=0;orthogonalLoop=1;jettySize=auto;html=1;" parent="1" source="SkyXIEemoBtbNoT6E5G0-3" target="SkyXIEemoBtbNoT6E5G0-4" edge="1">
                    <mxGeometry relative="1" as="geometry"/>
                </mxCell>
                <mxCell id="SkyXIEemoBtbNoT6E5G0-3" value="Evaluate Vector Databse" style="rounded=0;whiteSpace=wrap;html=1;" parent="1" vertex="1">
                    <mxGeometry x="270" y="400" width="120" height="60" as="geometry"/>
                </mxCell>
                <mxCell id="SkyXIEemoBtbNoT6E5G0-9" style="edgeStyle=orthogonalEdgeStyle;rounded=0;orthogonalLoop=1;jettySize=auto;html=1;" parent="1" source="SkyXIEemoBtbNoT6E5G0-4" edge="1">
                    <mxGeometry relative="1" as="geometry">
                        <mxPoint x="230" y="430" as="targetPoint"/>
                        <Array as="points">
                            <mxPoint x="465" y="360"/>
                            <mxPoint x="230" y="360"/>
                        </Array>
                    </mxGeometry>
                </mxCell>
                <mxCell id="SkyXIEemoBtbNoT6E5G0-11" value="no" style="edgeLabel;html=1;align=center;verticalAlign=middle;resizable=0;points=[];" parent="SkyXIEemoBtbNoT6E5G0-9" vertex="1" connectable="0">
                    <mxGeometry x="-0.8925" relative="1" as="geometry">
                        <mxPoint as="offset"/>
                    </mxGeometry>
                </mxCell>
                <mxCell id="SkyXIEemoBtbNoT6E5G0-12" value="(fine tune)" style="edgeLabel;html=1;align=center;verticalAlign=middle;resizable=0;points=[];" parent="SkyXIEemoBtbNoT6E5G0-9" vertex="1" connectable="0">
                    <mxGeometry x="0.0587" y="-1" relative="1" as="geometry">
                        <mxPoint as="offset"/>
                    </mxGeometry>
                </mxCell>
                <mxCell id="SkyXIEemoBtbNoT6E5G0-14" value="" style="edgeStyle=orthogonalEdgeStyle;rounded=0;orthogonalLoop=1;jettySize=auto;html=1;" parent="1" source="SkyXIEemoBtbNoT6E5G0-4" target="SkyXIEemoBtbNoT6E5G0-13" edge="1">
                    <mxGeometry relative="1" as="geometry"/>
                </mxCell>
                <mxCell id="SkyXIEemoBtbNoT6E5G0-15" value="yes" style="edgeLabel;html=1;align=center;verticalAlign=middle;resizable=0;points=[];" parent="SkyXIEemoBtbNoT6E5G0-14" vertex="1" connectable="0">
                    <mxGeometry x="-0.2978" relative="1" as="geometry">
                        <mxPoint as="offset"/>
                    </mxGeometry>
                </mxCell>
                <mxCell id="SkyXIEemoBtbNoT6E5G0-4" value="better?" style="rhombus;whiteSpace=wrap;html=1;" parent="1" vertex="1">
                    <mxGeometry x="425" y="390" width="80" height="80" as="geometry"/>
                </mxCell>
                <mxCell id="87iSMnxZ-YjvhP-EK6Kk-2" value="" style="edgeStyle=orthogonalEdgeStyle;rounded=0;orthogonalLoop=1;jettySize=auto;html=1;" parent="1" source="SkyXIEemoBtbNoT6E5G0-13" target="87iSMnxZ-YjvhP-EK6Kk-1" edge="1">
                    <mxGeometry relative="1" as="geometry"/>
                </mxCell>
                <mxCell id="87iSMnxZ-YjvhP-EK6Kk-3" value="as Retriever" style="edgeLabel;html=1;align=center;verticalAlign=middle;resizable=0;points=[];" parent="87iSMnxZ-YjvhP-EK6Kk-2" vertex="1" connectable="0">
                    <mxGeometry x="-0.2545" y="-1" relative="1" as="geometry">
                        <mxPoint x="13" y="-1" as="offset"/>
                    </mxGeometry>
                </mxCell>
                <mxCell id="SkyXIEemoBtbNoT6E5G0-13" value="" style="shape=cylinder3;whiteSpace=wrap;html=1;boundedLbl=1;backgroundOutline=1;size=15;" parent="1" vertex="1">
                    <mxGeometry x="580" y="390" width="60" height="80" as="geometry"/>
                </mxCell>
                <mxCell id="SkyXIEemoBtbNoT6E5G0-16" value="Vector Database" style="text;html=1;align=center;verticalAlign=middle;whiteSpace=wrap;rounded=0;" parent="1" vertex="1">
                    <mxGeometry x="580" y="480" width="60" height="30" as="geometry"/>
                </mxCell>
                <mxCell id="87iSMnxZ-YjvhP-EK6Kk-1" value="" style="shape=image;verticalLabelPosition=bottom;labelBackgroundColor=default;verticalAlign=top;aspect=fixed;imageAspect=0;image=data:image/svg+xml,PHN2ZyB4bWxuczp4bGluaz0iaHR0cDovL3d3dy53My5vcmcvMTk5OS94bGluayIgeG1sbnM9Imh0dHA6Ly93d3cudzMub3JnLzIwMDAvc3ZnIiB2aWV3Qm94PSIwIDAgMjQwNiAyNDA2Ij4mI3hhOwk8cGF0aCBmaWxsPSIjNzRhYTljIiBkPSJNMSA1NzguNEMxIDI1OS41IDI1OS41IDEgNTc4LjQgMWgxMjQ5LjFjMzE5IDAgNTc3LjUgMjU4LjUgNTc3LjUgNTc3LjRWMjQwNkg1NzguNEMyNTkuNSAyNDA2IDEgMjE0Ny41IDEgMTgyOC42VjU3OC40eiIvPiYjeGE7CTxwYXRoIGZpbGw9IiNmZmYiIGQ9Ik0xMTA3LjMgMjk5LjFjLTE5Ny45OTkgMC0zNzMuOSAxMjcuMy00MzUuMiAzMTUuM0w2NTAgNzQzLjV2NDI3LjljMCAyMS40IDExIDQwLjQgMjkuNCA1MS40bDM0NC41IDE5OC41MTVWODMzLjNoLjF2LTI3LjlMMTM3Mi43IDYwNGMzMy43MTUtMTkuNTIgNzAuNDQtMzIuODU3IDEwOC40Ny0zOS44MjhMMTQ0Ny42IDQ1MC4zQzEzNjEgMzUzLjUgMTIzNy4xIDI5OC41IDExMDcuMyAyOTkuMXptMCAxMTcuNS0uNi42Yzc5LjY5OSAwIDE1Ni4zIDI3LjUgMjE3LjYgNzguNC0yLjUgMS4yLTcuNCA0LjMtMTEgNi4xTDk1Mi44IDcwOS4zYy0xOC40IDEwLjQtMjkuNCAzMC0yOS40IDUxLjRWMTI0OGwtMTU1LjEtODkuNFY3NTUuOGMtLjEtMTg3LjA5OSAxNTEuNjAxLTMzOC45IDMzOS0zMzkuMnoiIGlkPSJhIi8+JiN4YTsJPHVzZSB0cmFuc2Zvcm09InJvdGF0ZSg2MCAxMjAzIDEyMDMpIiB4bGluazpocmVmPSIjYSIvPiYjeGE7ICAJPHVzZSB0cmFuc2Zvcm09InJvdGF0ZSgxMjAgMTIwMyAxMjAzKSIgeGxpbms6aHJlZj0iI2EiLz4mI3hhOwk8dXNlIHRyYW5zZm9ybT0icm90YXRlKDE4MCAxMjAzIDEyMDMpIiB4bGluazpocmVmPSIjYSIvPiYjeGE7CTx1c2UgdHJhbnNmb3JtPSJyb3RhdGUoMjQwIDEyMDMgMTIwMykiIHhsaW5rOmhyZWY9IiNhIi8+JiN4YTsJPHVzZSB0cmFuc2Zvcm09InJvdGF0ZSgzMDAgMTIwMyAxMjAzKSIgeGxpbms6aHJlZj0iI2EiLz4mI3hhOyYjeGE7PC9zdmc+;" parent="1" vertex="1">
                    <mxGeometry x="740" y="392.5" width="75" height="75" as="geometry"/>
                </mxCell>
                <mxCell id="87iSMnxZ-YjvhP-EK6Kk-4" value="RAG" style="text;html=1;align=center;verticalAlign=middle;whiteSpace=wrap;rounded=0;" parent="1" vertex="1">
                    <mxGeometry x="747.5" y="480" width="60" height="30" as="geometry"/>
                </mxCell>
                <mxCell id="87iSMnxZ-YjvhP-EK6Kk-5" value="&lt;h1 style=&quot;margin-top: 0px;&quot;&gt;SQuAD data&lt;/h1&gt;&lt;p&gt;This is used to utilize for evaluating and enhancing the performance of Vector Database and overall architecture of RAG system.&lt;/p&gt;" style="text;html=1;whiteSpace=wrap;overflow=hidden;rounded=0;" parent="1" vertex="1">
                    <mxGeometry x="200" y="220" width="260" height="120" as="geometry"/>
                </mxCell>
                <mxCell id="87iSMnxZ-YjvhP-EK6Kk-12" style="edgeStyle=orthogonalEdgeStyle;rounded=0;orthogonalLoop=1;jettySize=auto;html=1;entryX=0;entryY=0.5;entryDx=0;entryDy=0;" parent="1" source="87iSMnxZ-YjvhP-EK6Kk-6" target="87iSMnxZ-YjvhP-EK6Kk-10" edge="1">
                    <mxGeometry relative="1" as="geometry">
                        <Array as="points">
                            <mxPoint x="210" y="630"/>
                            <mxPoint x="210" y="678"/>
                        </Array>
                    </mxGeometry>
                </mxCell>
                <mxCell id="87iSMnxZ-YjvhP-EK6Kk-6" value="SQuAD" style="shape=cylinder3;whiteSpace=wrap;html=1;boundedLbl=1;backgroundOutline=1;size=15;" parent="1" vertex="1">
                    <mxGeometry x="100" y="590" width="60" height="80" as="geometry"/>
                </mxCell>
                <mxCell id="87iSMnxZ-YjvhP-EK6Kk-14" style="edgeStyle=orthogonalEdgeStyle;rounded=0;orthogonalLoop=1;jettySize=auto;html=1;" parent="1" source="87iSMnxZ-YjvhP-EK6Kk-7" target="87iSMnxZ-YjvhP-EK6Kk-10" edge="1">
                    <mxGeometry relative="1" as="geometry">
                        <Array as="points">
                            <mxPoint x="210" y="730"/>
                            <mxPoint x="210" y="678"/>
                        </Array>
                    </mxGeometry>
                </mxCell>
                <mxCell id="87iSMnxZ-YjvhP-EK6Kk-15" value="evaluate" style="edgeLabel;html=1;align=center;verticalAlign=middle;resizable=0;points=[];" parent="87iSMnxZ-YjvhP-EK6Kk-14" vertex="1" connectable="0">
                    <mxGeometry x="0.4396" y="-2" relative="1" as="geometry">
                        <mxPoint as="offset"/>
                    </mxGeometry>
                </mxCell>
                <mxCell id="87iSMnxZ-YjvhP-EK6Kk-7" value="Messenger" style="shape=cylinder3;whiteSpace=wrap;html=1;boundedLbl=1;backgroundOutline=1;size=15;" parent="1" vertex="1">
                    <mxGeometry x="100" y="690" width="60" height="80" as="geometry"/>
                </mxCell>
                <mxCell id="87iSMnxZ-YjvhP-EK6Kk-9" value="" style="endArrow=none;dashed=1;html=1;rounded=0;" parent="1" edge="1">
                    <mxGeometry width="50" height="50" relative="1" as="geometry">
                        <mxPoint x="80" y="560" as="sourcePoint"/>
                        <mxPoint x="840" y="560" as="targetPoint"/>
                    </mxGeometry>
                </mxCell>
                <mxCell id="87iSMnxZ-YjvhP-EK6Kk-17" value="" style="edgeStyle=orthogonalEdgeStyle;rounded=0;orthogonalLoop=1;jettySize=auto;html=1;" parent="1" source="87iSMnxZ-YjvhP-EK6Kk-10" target="87iSMnxZ-YjvhP-EK6Kk-16" edge="1">
                    <mxGeometry relative="1" as="geometry"/>
                </mxCell>
                <mxCell id="87iSMnxZ-YjvhP-EK6Kk-10" value="" style="shape=image;verticalLabelPosition=bottom;labelBackgroundColor=default;verticalAlign=top;aspect=fixed;imageAspect=0;image=data:image/svg+xml,PHN2ZyB4bWxuczp4bGluaz0iaHR0cDovL3d3dy53My5vcmcvMTk5OS94bGluayIgeG1sbnM9Imh0dHA6Ly93d3cudzMub3JnLzIwMDAvc3ZnIiB2aWV3Qm94PSIwIDAgMjQwNiAyNDA2Ij4mI3hhOwk8cGF0aCBmaWxsPSIjNzRhYTljIiBkPSJNMSA1NzguNEMxIDI1OS41IDI1OS41IDEgNTc4LjQgMWgxMjQ5LjFjMzE5IDAgNTc3LjUgMjU4LjUgNTc3LjUgNTc3LjRWMjQwNkg1NzguNEMyNTkuNSAyNDA2IDEgMjE0Ny41IDEgMTgyOC42VjU3OC40eiIvPiYjeGE7CTxwYXRoIGZpbGw9IiNmZmYiIGQ9Ik0xMTA3LjMgMjk5LjFjLTE5Ny45OTkgMC0zNzMuOSAxMjcuMy00MzUuMiAzMTUuM0w2NTAgNzQzLjV2NDI3LjljMCAyMS40IDExIDQwLjQgMjkuNCA1MS40bDM0NC41IDE5OC41MTVWODMzLjNoLjF2LTI3LjlMMTM3Mi43IDYwNGMzMy43MTUtMTkuNTIgNzAuNDQtMzIuODU3IDEwOC40Ny0zOS44MjhMMTQ0Ny42IDQ1MC4zQzEzNjEgMzUzLjUgMTIzNy4xIDI5OC41IDExMDcuMyAyOTkuMXptMCAxMTcuNS0uNi42Yzc5LjY5OSAwIDE1Ni4zIDI3LjUgMjE3LjYgNzguNC0yLjUgMS4yLTcuNCA0LjMtMTEgNi4xTDk1Mi44IDcwOS4zYy0xOC40IDEwLjQtMjkuNCAzMC0yOS40IDUxLjRWMTI0OGwtMTU1LjEtODkuNFY3NTUuOGMtLjEtMTg3LjA5OSAxNTEuNjAxLTMzOC45IDMzOS0zMzkuMnoiIGlkPSJhIi8+JiN4YTsJPHVzZSB0cmFuc2Zvcm09InJvdGF0ZSg2MCAxMjAzIDEyMDMpIiB4bGluazpocmVmPSIjYSIvPiYjeGE7ICAJPHVzZSB0cmFuc2Zvcm09InJvdGF0ZSgxMjAgMTIwMyAxMjAzKSIgeGxpbms6aHJlZj0iI2EiLz4mI3hhOwk8dXNlIHRyYW5zZm9ybT0icm90YXRlKDE4MCAxMjAzIDEyMDMpIiB4bGluazpocmVmPSIjYSIvPiYjeGE7CTx1c2UgdHJhbnNmb3JtPSJyb3RhdGUoMjQwIDEyMDMgMTIwMykiIHhsaW5rOmhyZWY9IiNhIi8+JiN4YTsJPHVzZSB0cmFuc2Zvcm09InJvdGF0ZSgzMDAgMTIwMyAxMjAzKSIgeGxpbms6aHJlZj0iI2EiLz4mI3hhOyYjeGE7PC9zdmc+;" parent="1" vertex="1">
                    <mxGeometry x="315" y="640" width="75" height="75" as="geometry"/>
                </mxCell>
                <mxCell id="87iSMnxZ-YjvhP-EK6Kk-11" value="RAG" style="text;html=1;align=center;verticalAlign=middle;whiteSpace=wrap;rounded=0;" parent="1" vertex="1">
                    <mxGeometry x="322.5" y="720" width="60" height="30" as="geometry"/>
                </mxCell>
                <mxCell id="87iSMnxZ-YjvhP-EK6Kk-19" value="" style="edgeStyle=orthogonalEdgeStyle;rounded=0;orthogonalLoop=1;jettySize=auto;html=1;entryX=0;entryY=0.5;entryDx=0;entryDy=0;" parent="1" source="87iSMnxZ-YjvhP-EK6Kk-16" target="87iSMnxZ-YjvhP-EK6Kk-25" edge="1">
                    <mxGeometry relative="1" as="geometry">
                        <mxPoint x="600" y="677.5" as="targetPoint"/>
                    </mxGeometry>
                </mxCell>
                <mxCell id="87iSMnxZ-YjvhP-EK6Kk-20" value="yes" style="edgeLabel;html=1;align=center;verticalAlign=middle;resizable=0;points=[];" parent="87iSMnxZ-YjvhP-EK6Kk-19" vertex="1" connectable="0">
                    <mxGeometry x="-0.0987" y="2" relative="1" as="geometry">
                        <mxPoint x="-34" y="2" as="offset"/>
                    </mxGeometry>
                </mxCell>
                <mxCell id="87iSMnxZ-YjvhP-EK6Kk-26" value="(integrate)" style="edgeLabel;html=1;align=center;verticalAlign=middle;resizable=0;points=[];" parent="87iSMnxZ-YjvhP-EK6Kk-19" vertex="1" connectable="0">
                    <mxGeometry x="0.3148" y="-1" relative="1" as="geometry">
                        <mxPoint as="offset"/>
                    </mxGeometry>
                </mxCell>
                <mxCell id="87iSMnxZ-YjvhP-EK6Kk-22" value="" style="edgeStyle=orthogonalEdgeStyle;rounded=0;orthogonalLoop=1;jettySize=auto;html=1;" parent="1" source="87iSMnxZ-YjvhP-EK6Kk-16" target="87iSMnxZ-YjvhP-EK6Kk-21" edge="1">
                    <mxGeometry relative="1" as="geometry"/>
                </mxCell>
                <mxCell id="87iSMnxZ-YjvhP-EK6Kk-23" value="no" style="edgeLabel;html=1;align=center;verticalAlign=middle;resizable=0;points=[];" parent="87iSMnxZ-YjvhP-EK6Kk-22" vertex="1" connectable="0">
                    <mxGeometry x="-0.1491" y="1" relative="1" as="geometry">
                        <mxPoint as="offset"/>
                    </mxGeometry>
                </mxCell>
                <mxCell id="87iSMnxZ-YjvhP-EK6Kk-16" value="better?" style="rhombus;whiteSpace=wrap;html=1;" parent="1" vertex="1">
                    <mxGeometry x="450" y="637.5" width="80" height="80" as="geometry"/>
                </mxCell>
                <mxCell id="87iSMnxZ-YjvhP-EK6Kk-21" value="Iterate Training" style="shape=process;whiteSpace=wrap;html=1;backgroundOutline=1;" parent="1" vertex="1">
                    <mxGeometry x="430" y="770" width="120" height="60" as="geometry"/>
                </mxCell>
                <mxCell id="87iSMnxZ-YjvhP-EK6Kk-25" value="" style="shape=image;verticalLabelPosition=bottom;labelBackgroundColor=default;verticalAlign=top;aspect=fixed;imageAspect=0;image=data:image/png,iVBORw0KGgoAAAANSUhEUgAAAOEAAADhCAMAAAAJbSJIAAAAjVBMVEX///8AAACxsbG2trY5OTn8/Px2dnb6+vp9fX3x8fH39/fh4eH09PTu7u7a2trT09OlpaXIyMjm5ubCwsJWVlYoKCjFxcWenp6Li4szMzPMzMzX19eXl5eRkZG0tLRubm5JSUliYmIhISESEhIsLCxbW1txcXE3NzeFhYVFRUVmZmZPT08WFhYcHBwLCws0zrfZAAAVVElEQVR4nO1di3aiOhQlIIggyEtBHvVJi1r9/8+7OUmABNFpR61mbvdaM9MqONkmOe8cFOUbCA/T3bYKvnOLXFihXFGGezR79kAeBQ0Z5N8NevJAHoYC2eRfE02ePJJHwUP+6XRYReifXaZjFCOKf1bWxGhACE6fPZDHYUGnMH72OB4I9Z9nSCkOnj2KR8Iik3gIbdvO0jQdP3s898cMiVCfPaB7I8Ckiin+axEnG0Lx2SO6M7J66la6E27hh9Ozh3RfFOgM1bPHdE9Yh3OCaP/sUd0RzqmHIEIf/44VvhKZuV49pfNk9m/YqarIUMcvhWXz63zh2c8e4c14Fxim5DWXX7qLJw/wZoQcmSXakdfMmGctu2BNGY9pPgHV78Frc3HpPnuIN0IDDqcinXm5p4YeMdg6GtKb6M8e5S2IgMM+4fZd5mKPuMx9u2pfTIbPHudfQ0M9MENCaM+/pj17pH+J/IzdIXbpW7ojvrGSz6eyVaNj0KxUUPI6tWcmw46upFJIHkymwujXRmgP7YnrwMIlVBxk7TsUT3koj50zEVamN5kVyxNjgfUHGDLYaRQYno5T+FJ24bOH/kVwKm870SKeyvyTBBbZGl2Xi2RiO82NLjYBZDDLmRT5NDvKvcZugid5UOGVC18GTFuas1t3+O1j7lz79FeATgSL7XZ3WjuRSWrRSyHEYSkVKtitzPlYvLpJ7kdGrA762W1MPoMBDGdpE5vSm8uM0RPG/XWM449+etMC60M79Dy1nqQ0z5WsYcMZOq+sPoZGP73Iw9ogK1GEZ3faG1LkXBFlbBo/PfCvIu1jdzRnsPP0tATB4vYvQcEICJU4+dFxfxldWwVNyzysbbLkih9hl2iPr7PfmHYxFOT+yIi/iY6xvaJBfD3X9d3g8s6ytAIv3Q/221gFpYEW6PATI/4mgpbcBobJXHjHJYqgn6LtsdgNtzcd1TzsklfUGXUwzZyNmPtLWRl7V0nPfV1nlpetgf6KhLqgBumBhpxiyhBogQ/c+oCWYwUTNV+04eJ56uD9+9oqkILoCUzFDf2xYsMva2KB2WHEpiiIl+JOnb/nKpavgWKilzfWMGDIKfHfK7zzJmQBMpMzRCusScQo/7SYWM29ExmKGcawA8nyZEsy3J+AGMUw3YnTJ2r9EYunvjSAoa8o2NNrNVkTZcqE+VMLvFoXFn+3FNEaskhHqIllu6FqDkggOBTnD3KIeloIVosUyeEdLD0iUOnYiVR5V7J83ZI7qJXRW6soRb0G3oFLpjJKEJ1k4uqYzZLFTfuc+A2+WooIPyxQF2uJjbHFk5WILvAnpbrquU/Fe3AkR5qmQGiA5c0iWKN+rHs32xI5pSNHchik6QX3sNQWZdGvEHS00Uv/JQ3tc1yMzaArjlOGjDSP0fbnhnkDzv3fufaW5yvG0Om1rjVUmO5Blkzb5nzrQXTQAVMA0JdnCtFyqk9lYcil0tA2IXtSrVTsOM7p+8SF6jjvNnEd55IwzDiGIdWInqVDbIMZZQks5Y6jVIKQKaRwLhTqX9Tw3tEHDbvMsT6k7y8KRfH6uGivGZc5ByxMsyVZURMHXqXGTIzWfu+NM1nq+UN0Qk0yJna5GaURtxyhnSBumuAw6mf+chihQ8cPZKiZaNgWF25gZngqhXMB6ElY7P3Aob6gmmeKUhXCDcxLnEnhXADacpI5s07N+q14lYbmsUskpZI1RIUiB/xWlCoBseIaCYIV32KId6IYONXp6vTQy2YqOhi2q/OoYYaHgu5Ad5CR8gzMJxONN7pMExT9+Fj/EkTLA8EdMXBYvlDHImavhIe+cj0iZVfyHFnAvNaKSWwaG7Wx/ATMcixntPnZESGiPRbo+KPDvAGQBsyJk1GCtUZtmdy2UK7RPelYvfdFqP/110NT7zQjaxWvyjTEvrGao6ViXwndV7IYpopybPTgZytXCW/s41+mmMAalgN8HIPq/7hEK6A4y8cGP1Fga5OlqbuwEWWICROQvBpT/FtmsFVItdEaO4eBp7TbDZIaJF8RhAU2hmQxauhGtNskE6nlOkyVOlQTNz+pcDEo/Cw0LCSNyofMRTqI7da0UaACBTUVlvFk31o1KVrhxTl2Klv7lCPaBjBQMt4ozIfaEGaIeE/pCLTFpLRbPwKOtuFNqIdw4vtpI/4u8EZU8rQpUVTpwrV8FE6IdY2cqJEqYMaSylOYelkUIvDRsBRpqkzfyRxiaWODvztNV3sf1aoBFjP5IaqQPOoC6i+VGVcGbULSBv8hmqIwQwQmD1Mb7KcAGaY0PjDxEeNhwGRNbkA8eI7w4sVvOVNtPESDD1THF7EFCwaptlRcKdJPFBCeUd6auNsn3nTWTJlghsMtCBaz1SKKviNuUx5YFjtWIwWw4abpeW2+zQu8DhNPQ+MAqhe2JA3XyBqXLE5t4uCNK8/xEuxB7dokxnKN54urhl5hh77wW4VB/tZhwUoSMlVo+ZersHKuxFLBciu3iEQ4IvyvkkENjYBhU8kvBwYgQPlM1AFSbwkU5G02qK+wMrDGrhxZUgrwfYdCiN+hNcBxYOyi3uKgbKLIkn8CQCeFWPCjYNvl6EqLDN3Ce1WejUjOj3KRRVqioAPFKxUJnjwOFFWJnrBMR0qGPrfIipcXb7Jl0ojg0CJLOL9WMQvuSk3CWp5YDYj+arbVOYK2S/1+5eNyuKKSSV+AYDwYXssQ+4e6t8ZC9Z1MYq/5kkq1THMIsJXHdpGSV20X+xgQQy2I2HQ6q1KqnlljFvpuUGdoMn6iOgfyVnXJrRQwkT8SJE3twl9y5sfvWF989L71mgjQEs9Jjc8D5kiTTsGGBDPGEZY4gluPXFeOmv0aC5S1Oj8ix2kOdKmiytvZDvarxiHv9UYe9rvM/g97SdhYaKIuDjBHYA8kEDmeK5+cfkhjiPFIE49SwJuYnB2EQmgfcAfx0pBXgWO8EWWy3PAkHruNMAhWaUP8XanDGQTET37egL+PFfLqs1C7vsLT/RKCjK2pRovGZJpETG9YmzWzxr45GnVSI1Qi0+TcDTsltQ0ytVgwsNe0qCeMneLangJFn5nkty1Nv3F3/MHBejmMoVShKZIakGMlpZKSzL3TbNHP9oac2EGSlLgR5OikD+sjeBsfmiqw6oywib5tOSW/UiwUylO0ANhgcdlk2tByj9Y00V3XTpl+14gpsPCRJ5VISjNmEJgatA2iqPtQ/34mOcmJU5kaDx8g6rbF26+eNVpAO5jXualutgI8x0qKA5cMNkShSGUN4mdt2J5c6IuS7mTyMRJIYnBFp6cjDdS0nU0/NdERzuB7edHz+L3YQKCNq+K3tR0wGiMevEvxkcL3Ik3xCZmsg8L7+zkt1hOtcq5wL4Pg6kmm8PCCVGTwx71iEogSj9iU4k2hTNYbxPgdockgEzfY6t4VazSlhh0fs8FOYilPPSaZj6WriO2/NhltUaAq7jtt98Kf7dLIccby4ie+HIw2ud3CGI1g5WKxE5Sk6Jbz7kEUaUgmgXpEu7PG15iATazvvauQjln8DaFHvpe3Zw3423AhcS9M4CyGVXtCZA/ufMUOBTPGQbRfiATH9BmgooZvfFlN5wi8XyxlNahgXHczFissSvWjTNHFEhug3eMmBdmaCfXskSmQccAIGA7kaAlCMARh0x7N37hjNzTxr0eOccS7vj4Un+hTNJWmBsVFa4Xr0kOnxgZrrhx7U6Rao3CABty+C8GocbAWkabDqUqMz9ovXDPdYIV7NAjAhMNGQGygnVi/52CrdivNLJrEmq7PCp+qer58EJlOsUNlHvoGWvEZNvL0iLU0e3EAkpGz3paxn2Z+DL5wORu2XTMrbl3iy+2NNFa4Q0qGu7ZND06cWDXQ4ihPK14fHfH0qBHrVrMtqEVagkWj+SXHsRvqlyYnFaMt+ER1u/YNe1oSCQEkzojLcnCThpm/79BckgR4QmJtvc0HO+BmsUJQJC1LocY7GXt4hVrqqtD/hTdJ4XK8WA9yyNSK1LafzeJ8rGIHxB7QmL4H65VblhYTT3LkpRIStxGiNKVj4D9KeJyuSQU4m2J+59lUDn1IUdAfU+894FKKJzBYl55PrNTSUlLKR1CDAc0cL2SoDAtZBo0vXhS4vvu64rhZ11rT31ZwSfEFQ1X31ac2z3ZZx6ighyLDtjRjz3vryhbLL9Zf2I5g/T63mQjWfFtYgjSvvWZts5bxWZeic6M7I6ZqfK1kYwxq9pg8ORy5wIRUh54dMlTqJa6xSzwv+CbnvR4+zdYZF71/hxn3fY3FfhJvnf3HhrXWhiwrdVpVkdY7VayjyFLr3ZBNv5Gna0+7yUZBTGpw1iN7FYSXDnvZdex1fy5ObI3Fg14gB6nXpnbcJdfAvDAPugFP5yFYaMJ2G6EdXQ2vYRy00bdVV8Ysk3wPtlseD/ZsMY74JesSy45ilzdzPa4jQa/ii6R0pXoaIViWqBe0INU3FT0sjEJl8aqhq6mTJmsX5SlWDuM6szx/IqkO8BCjt5OpOBG4iBcWK3gV6bK19PbNHhNTdFETuaMpjyEnitSnxc/tHfpwNaQq6aV2iwjMN3wF8SKPKIL46ilmuy9I+m/bHKIIb8hTqVK9j/d6FAbW0AlsN539cFREw2aaa376SniFI2AAvTZU6phs8D3s/kDl9uTgcNhtxc54czOpPjsfhX7WptPxUs2DZD5R/AuPjSD4OKAV8RpdtHcg4xqFdi18HHXLj3sUhJ65Alqf9d6manKzW7wbpI34D4conT2UocSHULHfSae3S/CgT0EYUcMMnMiPnNo2GZhCi+HYcd1gVI8ef05SH2vBNxwCRR8GqVbBWvnxhAg0hzSD2d5TRnFxFo6L6leSBcpSdNAGHlqPmVm0XuTVVrx++nHYlxees8HwhLBPVkLmgki/2R4UIWegmjuxM+pCMVCeowS9F+h92R38l/DzBDFsbI5/xsSMGXvrKFVs70JL1B1JOyrJytuO3f5L/oBnHY2HHA0qqbabLE7QRstJxUcqEWyI/AD1kZ4//uyPGJhP9Y6zCsv69xkICwuUWIxtFXvaGePpvFPql/C5IKbP05GRnBt5VFtq9Hcp/CvsX6k0185BHeyLMBsSh2h14QFZf8bJ0OwxXuvG8eXCdOMwofM3WMQaVu1D2w9Vz3vTfEef1Q/n2w6WV7kvXr7UwQ6LA7O4Pow8zMatKaLrzc+TPdraqy67tSlJx1A8mxMtNyImXDYfqyT3tHQyybJsMnnzisUA3mplT1mpfuhn8pTFtRjZWajG1X7ZY72etsvSjN8mtjQp8T9A161gMgsx/HTiBta/wusXv/jFL37xi1/IiQdmwF7CzAlWj0tjxi+QQBySEOFjhpFC3OPZjRjZ4e5HMAyor/jUMrFRXKdx7+/GpXUI8t4MF1vsn2lhmrkM2ST1fT8MNU318qIyFou62sfhEoX3ruJWW1f4zgz5plAXwZIFXJT68/qnfhv8E3vvvQ+/Eppll3JnS9Z3HgUfAb+7pHEuP5WMoTnd6zS5l7MHCdwKXWuCbw+QpW3ZaBgw2G6qqQn7TznlV3/Xj3jeWr2aHpHXrtPqZy0DZmcvs2/jISUFbIU8pPx9fYEhLdUSzhNOH8cweCDD6hJDsnQE8W0+jqHyQIbxRYZ6d+vHD2S4fhxD9SJDmET1/NLHMJw/haHVKfHQHshw8BSGykhM3z2e4UOqoK4x7OCX4S0YPMqm+WUo4P/C8DHPAf5leAP6GapFTxXZv8TQhufKn4EyvLt/SPDTDN96C8v/JYZJb1DoTwydVPPitytlPoGPL/A0v+eSn2aI/7+eyhbK8EKcZlI1ITOzN95o8zWoy6ITdaUM2dfqzg8rI/FUwJsGuKW0rY8hePM9peNXGKp8t4y+cl59gUR0Wi0KDAt0hhtyGozh1p9pb6oXJ8Y+Ip5Mz7d2keFbdzxnnSJHx+4lnYJYgaF9Xix8Q7PinsbBl760CwwDOrqBrYzSurC0s6F0QnAZBkO8WVlNuLgZBYYYbjvnm4NR3FLjfYlhz6Va7/ywANWGfiUsZNBJUJFQSSOdafGp+CV0GTbx6vzmAvZbGdZBxrqksOy5fdhdFTDVZ7JNZFh1X/hrMIYLxcIYB5PZW/kthqxefVn/7vcwJJFJwRaadm2jLkPyse93SZEwhryCL64y7OQt2EmtRjCNehh63Tkk0UNBlokMaWPKO9V29zAkjYR7Lu1lSCKd03az6D0M6eYUgjBhKS5AgaEDkbftvcq7+xiG1xhuOq+ONVUo691cmsOrPWt4huQ09f0eDdLHUPkOww765rDOjiSXtRrH0BP29e3oZRhdYXi6bl5YPQzZaxj5pQRyy9A427Q3opeh39tJ90sM+yQN36Vo0b9Wa4b64c8r+pvoZdiPrzDUV30Mdb6NZtRXrk4ZGn59oHH51fH/Gd9meHkBOWG+qml03hoJRzGn5ycOzgrB7+dI3YthKp63676ti49aiLolK+el7nc7C/R9hj2GRlrbydP6CML5NZnoMHTO+zQMV6l553V6B4YaHfumgn6f9iWGWGkIh2VEi7pmCHYM87Tu1YHgZoYBPQkUsb3VK0tr+FzVitjifMDRrhs23Ume3sqQafPGJHOuMaTnThkEcTPgR8FKRDb3UYrfZygYJpPurqIMT5c/xa33o9Cff8AvzNpCiL5O4wpuZHh2N605uGraJT3jpwzrR5zVHYzv0ivDu4lheLbgKEPBiQyXHclPpaXgIIoMm+eF3sMDzm9iWHUXKWMoBFUH3RgrXclCf3O6dIvm91q53iHv/f51hiykxitr9l1zBgirjOHv2549E4NcIjx/Z93Zmk3LrdvdYGYxfqWbenz+f+Znd3vNd28FbHFuu8tt3P1aatnCfU5Tj3ar+dZ80BeUDwsV8kuuvr3Wzk7TfmYOvKivtBWnp/4W+NVed4Hh9EPzSbc9wZ3rv5Zkf4j7NHHfdTuLTY3qzgv9t6LbLIGm6FgX/qYNlnY+hfXh9pIbQ3Oof/3XK9UKK3FA20V10d4NhS4Cu4oFdD3UwYE7eM/ERMN7aeZeYdALuGCiy0f8d2ZRE+LO9A8G5d/0yeoOjvwHF649TyUwgSOWqL67tVGD9V39bXVTFgDu4Z7ZpTeFJ2qi5V8yPM6XEcZh90G/sUsPN2CjPE7n8/kWTOPPestwlcYF4URX/oD7zr3u6l3xZreGuqgHIfQw/JsHng7dEb/19PFodLEOfxT69qg5ea6PnVYmOPH+Yz3fx237rryKO7H44UStFqRr2SmqOrkyXc3VcJa6wWhsWdbQGrVvB9XeTGINv5tdcRf/A9rAI+WuEHE9AAAAAElFTkSuQmCC;" parent="1" vertex="1">
                    <mxGeometry x="690" y="635" width="85" height="85" as="geometry"/>
                </mxCell>
            </root>
        </mxGraphModel>
    </diagram>
</mxfile>